# xmcd
#
# Track frame offsets:
#	150
#	16136
#	34540
#	51457
#	67269
#	84118
#	99114
#	115594
#	131405
#	146671
#	164605
#	178653
#	193372
#	208723
#
# Disc length: 2994 seconds
#
# Revision: 0
# Processed by: cddbd v1.5.2PL0 Copyright (c) Steve Scherf et al.
# Submitted via: audiograbber 1.83.01
#
DISCID=c10bb00e
DTITLE=Destivo - Mare Mare
DYEAR=2008
DGENRE=Pop
TTITLE0=Dr. Amore ( Deutsche Version )
TTITLE1=Mare Mare
TTITLE2=Sempre Sempre ( Du bist mein Leben )
TTITLE3=Sei Tu
TTITLE4=Un Amore Per La Vita
TTITLE5=Il Mio Destino
TTITLE6=Non Succedera Piu
TTITLE7=Amore Impossibile
TTITLE8=Questa Notte
TTITLE9=Paparazzi
TTITLE10=La Notte Italiana
TTITLE11=Mama Per Te
TTITLE12=In Discoteca
TTITLE13=Dr. Amore ( Italiano Versionen)
EXTD=
EXTT0=
EXTT1=
EXTT2=
EXTT3=
EXTT4=
EXTT5=
EXTT6=
EXTT7=
EXTT8=
EXTT9=
EXTT10=
EXTT11=
EXTT12=
EXTT13=
PLAYORDER=
